/* XPM */
static char * back_xpm[] = {
"16 16 30 1",
" 	c None",
".	c #3DD03D",
"+	c #46BC4B",
"@	c #32B52C",
"#	c #24B31E",
"$	c #16B416",
"%	c #60CF58",
"&	c #7FD081",
"*	c #92E193",
"=	c #27C925",
"-	c #2AA51C",
";	c #149011",
">	c #88D68F",
",	c #70D671",
"'	c #9EE4A2",
")	c #19C419",
"!	c #16AA15",
"~	c #CDEFCD",
"{	c #BEE5C1",
"]	c #50D051",
"^	c #217A0F",
"/	c #E9F1F7",
"(	c #ABE8AB",
"_	c #30CD1D",
":	c #2EBD34",
"<	c #0A540A",
"[	c #26B826",
"}	c #19790F",
"|	c #33AA34",
"1	c #28911A",
"     .+@#$      ",
"   .%&*&=#-;    ",
"  %>*%,'.)$!;   ",
" .&*%%~{]))$!^  ",
" .,..~/(_))$!^  ",
"):].~/~]===)$;< ",
"$).~//~({',=$;< ",
")[*//////~']$;< ",
"$)]~//~(('&=$;< ",
";$).~/~]==[$!;< ",
" ;$).~/'=$)!;<  ",
" ;!$$.{{]$!;}<  ",
"  ;!!!|,@!;}<   ",
"   ^^;;1;;<<    ",
"     <<<<<      ",
"                "};
