/* XPM */
static char * bookmark_entry_xpm[] = {
"16 16 45 1",
" 	c None",
".	c #DEF0FD",
"+	c #C9D9F0",
"@	c #C66555",
"#	c #C8504B",
"$	c #BC746D",
"%	c #A7C6EA",
"&	c #A7D3FD",
"*	c #A1CEFD",
"=	c #9CD1FB",
"-	c #C9E3FD",
";	c #D7E4E9",
">	c #C44C37",
",	c #E2DAE6",
"'	c #BCE0FC",
")	c #77C2FB",
"!	c #D02C11",
"~	c #D9EAFD",
"{	c #98CCFB",
"]	c #BBD6E9",
"^	c #28A5FD",
"/	c #B84634",
"(	c #70BBF8",
"_	c #51B5FA",
":	c #1AA7FD",
"<	c #B7DAFB",
"[	c #B52610",
"}	c #B02F2E",
"|	c #CFCECD",
"1	c #E9474F",
"2	c #B9C4E4",
"3	c #C9B6CD",
"4	c #CCADB2",
"5	c #F5472F",
"6	c #A6B9E4",
"7	c #F48E2E",
"8	c #F6C505",
"9	c #BB9CB8",
"0	c #E93B46",
"a	c #FEE702",
"b	c #CC384B",
"c	c #2891E7",
"d	c #F07A35",
"e	c #87C6FA",
"f	c #169BF9",
"                ",
" .+@#$%&*=*     ",
" -;>>>,.-=')    ",
" ',>!>,.~{]{^   ",
" ',/!/,.~={(_:  ",
" ',/!/,.~<_^_:  ",
" <,/!/,.~+<<*^  ",
" &,/[},,|12]&^  ",
" *+///31454#6^  ",
" *+4|$3478796^  ",
" *-++2058a80bc  ",
" *-'''2478d96^  ",
" *''<<2#959#6^  ",
" {&&&&=66b66e^  ",
" ^^^^^^^^c^^^f  ",
"                "};
