/* XPM */
static char * clean_xpm[] = {
"16 16 106 2",
"  	c None",
". 	c #CAAD7F",
"+ 	c #DAC5A4",
"@ 	c #D4C0A2",
"# 	c #BF995D",
"$ 	c #B98531",
"% 	c #E0CFB5",
"& 	c #F2ECE5",
"* 	c #B9842F",
"= 	c #C17C0D",
"- 	c #C7A162",
"; 	c #DBC6A6",
"> 	c #C38623",
", 	c #B17718",
"' 	c #F1EBE3",
") 	c #FAF6E8",
"! 	c #B89054",
"~ 	c #AD760B",
"{ 	c #D2B851",
"] 	c #E2CF4E",
"^ 	c #E1CE78",
"/ 	c #EDDB5C",
"( 	c #F7E374",
"_ 	c #AF5634",
": 	c #9E2324",
"< 	c #DFCD65",
"[ 	c #B36720",
"} 	c #CE332B",
"| 	c #BF2C32",
"1 	c #CA8841",
"2 	c #E0CD70",
"3 	c #D2B8B8",
"4 	c #B20000",
"5 	c #AB4227",
"6 	c #EFDD73",
"7 	c #FEEA4B",
"8 	c #F0DB37",
"9 	c #DCC64D",
"0 	c #DCC396",
"a 	c #FAE859",
"b 	c #FAE650",
"c 	c #F0D840",
"d 	c #EED524",
"e 	c #DDC519",
"f 	c #E1CE66",
"g 	c #F4EED9",
"h 	c #EEE3BB",
"i 	c #EEDC4E",
"j 	c #F1D72C",
"k 	c #F8E03D",
"l 	c #E8CE24",
"m 	c #DEC615",
"n 	c #D9C119",
"o 	c #E0CD5D",
"p 	c #F2EAC8",
"q 	c #F8F3E7",
"r 	c #DFC941",
"s 	c #E9D11A",
"t 	c #EACF24",
"u 	c #DCBF1B",
"v 	c #DFC622",
"w 	c #DEC81F",
"x 	c #D7BE28",
"y 	c #EADB70",
"z 	c #DECA6A",
"A 	c #D2BA40",
"B 	c #DEC619",
"C 	c #DDC421",
"D 	c #EAD543",
"E 	c #D8BD1E",
"F 	c #D1B506",
"G 	c #E5D340",
"H 	c #D2B627",
"I 	c #DCD2A2",
"J 	c #E3E3E3",
"K 	c #D6D6D6",
"L 	c #C6BF9D",
"M 	c #D9BF30",
"N 	c #DEC723",
"O 	c #DEC61C",
"P 	c #DDC73A",
"Q 	c #E7D867",
"R 	c #C8AC27",
"S 	c #C1BEB3",
"T 	c #D1D1D1",
"U 	c #DFDFDF",
"V 	c #E4E4E4",
"W 	c #D4D4D4",
"X 	c #C6C6C5",
"Y 	c #CFBD5B",
"Z 	c #DDC53F",
"` 	c #D5B928",
" .	c #CCB956",
"..	c #B6AC7C",
"+.	c #B3B3B2",
"@.	c #C2C2C2",
"#.	c #E0E0E0",
"$.	c #DEDEDE",
"%.	c #D3D2CD",
"&.	c #CBC094",
"*.	c #C6C6C6",
"=.	c #CDCDCD",
"-.	c #CBCBCB",
";.	c #D2D2D2",
">.	c #DBDBDB",
",.	c #E7E7E7",
"    . +                         ",
"  @ # $ %                       ",
"  & * = -                       ",
"    ; > , ' )                   ",
"      ! ~ { ]                   ",
"      ^ / ( _ :                 ",
"      < [ } | 1 2               ",
"      3 4 5 6 7 8 9 )           ",
"        0 a b c d e f g         ",
"        h i j k l m n o p       ",
"        q r s t u v w x y z     ",
"          A B C D E F G H I     ",
"      J K L M N O P Q R S T U   ",
"      V W X Y Z `  ...+.@.T #.  ",
"          $.%.&.*.=.-.;.>.,.    ",
"                                "};
