/* XPM */
static char * clean_trash_xpm[] = {
"16 16 169 2",
"  	c None",
". 	c #D8E4D8",
"+ 	c #C1EAB0",
"@ 	c #9DD67C",
"# 	c #8CCC67",
"$ 	c #A1D88E",
"% 	c #8FCA78",
"& 	c #A7D4A4",
"* 	c #86CB61",
"= 	c #CBDECB",
"- 	c #B9DDB6",
"; 	c #BFEAAC",
"> 	c #E4F6DD",
", 	c #AEE6A3",
"' 	c #A1CDAF",
") 	c #97B990",
"! 	c #8DAF88",
"~ 	c #BDC6D2",
"{ 	c #DADDEA",
"] 	c #ECECF8",
"^ 	c #E7ECF7",
"/ 	c #E8EAF6",
"( 	c #EDEFF4",
"_ 	c #BCC5D6",
": 	c #9FB9AE",
"< 	c #A3D59A",
"[ 	c #ABE69D",
"} 	c #76CC5B",
"| 	c #86CC84",
"1 	c #9BC6B2",
"2 	c #BAD4CB",
"3 	c #BDCFCC",
"4 	c #C3D1D3",
"5 	c #DDE5E6",
"6 	c #E7ECED",
"7 	c #E7EFEA",
"8 	c #E8F3E8",
"9 	c #BAD3C3",
"0 	c #BEE1C5",
"a 	c #A3DF9A",
"b 	c #86D56F",
"c 	c #E4F3DF",
"d 	c #4CA72E",
"e 	c #56BC36",
"f 	c #65C449",
"g 	c #79C961",
"h 	c #81CF6E",
"i 	c #8ED77C",
"j 	c #93DA82",
"k 	c #9DE48A",
"l 	c #9CE688",
"m 	c #9BE985",
"n 	c #8DE274",
"o 	c #7AD95D",
"p 	c #66CE44",
"q 	c #6DC153",
"r 	c #DEEED9",
"s 	c #83C271",
"t 	c #3DA91C",
"u 	c #47B027",
"v 	c #4BB12B",
"w 	c #56BD33",
"x 	c #60C93F",
"y 	c #6BD449",
"z 	c #73E053",
"A 	c #7DEA5A",
"B 	c #82F05E",
"C 	c #7CE759",
"D 	c #6FDB4B",
"E 	c #5DC939",
"F 	c #8BCB77",
"G 	c #E4E6E3",
"H 	c #7F9178",
"I 	c #6C9F5A",
"J 	c #59A542",
"K 	c #53B037",
"L 	c #59BE37",
"M 	c #64CE44",
"N 	c #6DDC4D",
"O 	c #76E054",
"P 	c #7CDB5C",
"Q 	c #7FCE66",
"R 	c #87BE75",
"S 	c #A3B69A",
"T 	c #E0E1DF",
"U 	c #AFAEAF",
"V 	c #B6B3B6",
"W 	c #C6C3C7",
"X 	c #CBC7CD",
"Y 	c #CBC7CC",
"Z 	c #CAC8C9",
"` 	c #CDCBCC",
" .	c #D4D1D5",
"..	c #DBD7DC",
"+.	c #DFDBE1",
"@.	c #DFDDE0",
"#.	c #DAD9DA",
"$.	c #BFBFBF",
"%.	c #B4B4B4",
"&.	c #CDCECD",
"*.	c #BED2B8",
"=.	c #C4DBBC",
"-.	c #D9E7D5",
";.	c #F1EFF1",
">.	c #F2F2F2",
",.	c #EFEFEF",
"'.	c #E8E8E8",
").	c #DEDEDE",
"!.	c #CFCFCF",
"~.	c #ADADAD",
"{.	c #CFCDD0",
"].	c #6CB554",
"^.	c #4CB72A",
"/.	c #98D683",
"(.	c #F7F1F9",
"_.	c #F5F5F5",
":.	c #F3F3F3",
"<.	c #E0E0E0",
"[.	c #DCDCDC",
"}.	c #B1AFB1",
"|.	c #B6BFB2",
"1.	c #4F9E34",
"2.	c #79BE62",
"3.	c #94CE81",
"4.	c #F6F1F8",
"5.	c #F6F6F6",
"6.	c #E7E7E7",
"7.	c #E6E6E6",
"8.	c #BABABA",
"9.	c #BAB8BA",
"0.	c #98AE91",
"a.	c #5D9F49",
"b.	c #DDE1DC",
"c.	c #DAE4D5",
"d.	c #F4F3F5",
"e.	c #F8F8F8",
"f.	c #EEEEEE",
"g.	c #E4E4E4",
"h.	c #BDBDBD",
"i.	c #C3C0C3",
"j.	c #699D58",
"k.	c #D7DCD7",
"l.	c #E9E9E9",
"m.	c #F7F7F7",
"n.	c #FDFDFD",
"o.	c #F1F1F1",
"p.	c #ECECEC",
"q.	c #DFDFDF",
"r.	c #C6C6C6",
"s.	c #B9B9B9",
"t.	c #D8D4D9",
"u.	c #B1C7AC",
"v.	c #E4E5E5",
"w.	c #F4F4F4",
"x.	c #FBFBFB",
"y.	c #EAEAEA",
"z.	c #D4D4D4",
"A.	c #CDCDCD",
"B.	c #DEDCDE",
"C.	c #E2E1E2",
"D.	c #E5E5E5",
"E.	c #D8D8D8",
"F.	c #C9C9C9",
"G.	c #D7D7D7",
"H.	c #E1E1E1",
"I.	c #DBDBDB",
"J.	c #CECECE",
"K.	c #D2D2D2",
"L.	c #D9D9D9",
"    . + @ # $ % & * = - ; >     ",
"  , ' ) ! ~ { ] ^ / ( _ : < [   ",
"  } | 1 2 3 4 5 6 7 8 9 0 a b c ",
"  d e f g h i j k l m n o p q r ",
"  s t u v w x y z A B C D E F   ",
"  G H I J K L M N O P Q R S T   ",
"    U V W X Y Z `  ...+.@.#.    ",
"    $.%.&.*.=.-.;.>.>.,.'.).    ",
"    !.~.{.].^./.(._.:.,.'.<.    ",
"    [.}.|.1.2.3.4._.5.,.6.7.    ",
"    8.9.0.a.b.c.d.e.e.f.g.      ",
"      h.i.j.k.l.m.n.o.p.q.      ",
"      r.s.t.u.v.w.x.w.y.[.      ",
"      z.s.A.B.C.D.6.6.g.<.      ",
"      E.%.F.G.).H.g.g.I.        ",
"        H.G.J.K.E.L.g.          "};
