/* XPM */
static char * close_book_xpm[] = {
"16 16 14 1",
" 	c None",
".	c #C49A04",
"+	c #D7A905",
"@	c #E7B404",
"#	c #B89205",
"$	c #F6C505",
"%	c #F4B500",
"&	c #F3EACD",
"*	c #F2D296",
"=	c #F6CE51",
"-	c #F5CA2D",
";	c #F0CC6A",
">	c #9A7500",
",	c #EAD7AF",
"       .+       ",
"     ..@@+      ",
"   #.@$$$%+     ",
" #.@$$$$$$%+    ",
"#&*=-$$$$$$%+   ",
"#*&*=-$$$$$$%+  ",
"#**&*=-$$$$$$%+ ",
"#;;*&*=-$$$$$$%+",
" #$;*&*=-$$$$## ",
"  #$;*&*=-$##&& ",
"   #$;*&*##&&&&>",
"    #$;##&&&&## ",
"     #$#,&&##   ",
"      ##,##     ",
"       ##       ",
"                "};
