/* XPM */
static char * copy_entry_xpm[] = {
"16 16 21 1",
" 	c None",
".	c #C9E3FD",
"+	c #BCE0FC",
"@	c #A7D3FD",
"#	c #A1CEFD",
"$	c #98CCFB",
"%	c #D9EAFD",
"&	c #DEF0FD",
"*	c #9CD1FB",
"=	c #77C2FB",
"-	c #E9F1F7",
";	c #BBD6E9",
">	c #28A5FD",
",	c #B7DAFB",
"'	c #70BBF8",
")	c #51B5FA",
"!	c #1AA7FD",
"~	c #169BF9",
"{	c #A7C6EA",
"]	c #A6B9E4",
"^	c #87C6FA",
"                ",
" ...+@@@#$#     ",
" .%&&&&%.*+=    ",
" .&-&&&&%$;$>   ",
" ,&-&&&&%$$')!  ",
" @%%&%%%%,)>>~  ",
" @,,,@@,..,@*>  ",
" &&&%*+${,++@>  ",
" &&&%$;*)],,@>  ",
" &&&%$$'))@,@>  ",
" &&&%,)>>>@@*>  ",
" &%...,@*>@@*>  ",
" %...+++@>*@$>  ",
" ..++++,@>^$^>  ",
" .+++,,,@>>>>~  ",
"                "};
