/* XPM */
static char * copy_section_xpm[] = {
"16 16 19 1",
" 	c None",
".	c #E8B717",
"+	c #DBAB16",
"@	c #FDE079",
"#	c #F3EACD",
"$	c #EAB828",
"%	c #F7F1B0",
"&	c #FBE390",
"*	c #F5CA2D",
"=	c #F3BA19",
"-	c #F6CE51",
";	c #D2C547",
">	c #E7B404",
",	c #D5AD55",
"'	c #D7A905",
")	c #CCA00A",
"!	c #E6AB03",
"~	c #F6C505",
"{	c #D0AC30",
"                ",
"        .....   ",
"       +@###@$. ",
"  $....@##%%%&& ",
" $@##%$%%@*=$$$ ",
"$@##%%$&@=-@&&& ",
";%%@*=.@-=@%### ",
"$&@=-@.@=-%%%%& ",
"$@-=@%$@.@%&&&& ",
".@=-%&.-.@@@@@@ ",
">@.@%@.*.@@@@@@ ",
">-.@@@.>*@----- ",
">*.@@@,$$$$$>') ",
"!.*@@-------~!  ",
" {$$$$$$${{{{{  ",
"                "};
