/* XPM */
static char * text_copy_xpm[] = {
"16 16 18 1",
" 	c None",
".	c #77C2FB",
"+	c #98CCFB",
"@	c #87C6FA",
"#	c #D9EAFD",
"$	c #C9E3FD",
"%	c #A7D3FD",
"&	c #DEF0FD",
"*	c #8BC6EA",
"=	c #70BBF8",
"-	c #BCE0FC",
";	c #B7DAFB",
">	c #96C5EA",
",	c #A7C6EA",
"'	c #9CD1FB",
")	c #51B5FA",
"!	c #28A5FD",
"~	c #1AA7FD",
"                ",
" .+@@@@.@       ",
" +####$@%@      ",
" @#&&&#.*=      ",
" @#&#$$-;==.@   ",
" @##$$$-;.>.%@  ",
" @#$$$--;.>=*=  ",
" .----;;%=,-;=  ",
" @;--;;;%=>;;.  ",
" =%%%%''+)>;;.  ",
" !!!!!!!!!>%%=  ",
"     =====,;%=  ",
"     =''''''+)  ",
"     !!!!!!!!~  ",
"                ",
"                "};
