/* XPM */
static char * create_entry_xpm[] = {
"16 16 35 1",
" 	c None",
".	c #F20100",
"+	c #F21B21",
"@	c #CCADB2",
"#	c #F2322C",
"$	c #E9474F",
"%	c #B9C4E4",
"&	c #A7D3FD",
"*	c #A1CEFD",
"=	c #98CCFB",
"-	c #F69304",
";	c #F6C505",
">	c #F48E2E",
",	c #E9BAB2",
"'	c #E2DAE6",
")	c #DEF0FD",
"!	c #D9EAFD",
"~	c #C9E3FD",
"{	c #9CD1FB",
"]	c #BCE0FC",
"^	c #77C2FB",
"/	c #F61702",
"(	c #FEE702",
"_	c #F5472F",
":	c #BBD6E9",
"<	c #28A5FD",
"[	c #F07A35",
"}	c #70BBF8",
"|	c #51B5FA",
"1	c #1AA7FD",
"2	c #BB9CB8",
"3	c #B7DAFB",
"4	c #169BF9",
"5	c #A6B9E4",
"6	c #87C6FA",
"   .            ",
" +@#@$%&&*=*    ",
"  -;>,')!~{]^   ",
"./;(;_$')!=:=<  ",
"  -;[,'))!==}|1 ",
" +2_,$'))!3|<<4 ",
"  5$''!!~~~33{< ",
"  *'))!~~~]]]&< ",
"  *!!~~~~]]]3&< ",
"  *~~~~]]]333&< ",
"  *~~]]]3333&{< ",
"  *~]]]3333&&{< ",
"  *]]3333&&&&=< ",
"  =&&&&{{{{==6< ",
"  |<<<<<<<<<<<4 ",
"                "};
