/* XPM */
static char * newbook_xpm[] = {
"16 16 34 1",
" 	c None",
".	c #CCA00A",
"+	c #DDB208",
"@	c #C49A04",
"#	c #E6AB03",
"$	c #F4B500",
"%	c #F5A300",
"&	c #F94A04",
"*	c #C49D14",
"=	c #C7A215",
"-	c #F2AE10",
";	c #F0D18E",
">	c #F6CE51",
",	c #F5CA2D",
"'	c #F69304",
")	c #F6C505",
"!	c #EAD7AF",
"~	c #F3B48C",
"{	c #F5472F",
"]	c #F9300E",
"^	c #FEE702",
"/	c #F39946",
"(	c #FE720B",
"_	c #B89205",
":	c #FDE079",
"<	c #E8B717",
"[	c #EAB828",
"}	c #E7B404",
"|	c #D0AC30",
"1	c #F3B572",
"2	c #C89423",
"3	c #F3EACD",
"4	c #D2AF6F",
"5	c #D5CE8F",
"       .+       ",
"     @.#$+      ",
"   @.#%&$$+     ",
" *=+-&%&%&$+    ",
"*;;>,'')'%$$+   ",
"*;!~{])^)&&$$+  ",
"*;;!~/')('$))$+ ",
"_>:;!{'&'&$))$$+",
" *<>;;[]-$)$}=* ",
"  @<>;!~>,)=|!! ",
"   @<>;!12|!!3!4",
"    @<>*|!!3!|= ",
"     @}*!3!|*   ",
"      _*5|*     ",
"       _*       ",
"                "};
