/* XPM */
static char * create_section_xpm[] = {
"16 16 26 1",
" 	c None",
".	c #F20100",
"+	c #F61702",
"@	c #FE720B",
"#	c #F6C505",
"$	c #E8B717",
"%	c #FEE702",
"&	c #FDE079",
"*	c #F3EACD",
"=	c #EAB828",
"-	c #E6A814",
";	c #F69304",
">	c #F7F1B0",
",	c #FBE390",
"'	c #F0D18E",
")	c #F5472F",
"!	c #F3B48C",
"~	c #F9300E",
"{	c #F5CA2D",
"]	c #F3BA19",
"^	c #E6AB03",
"/	c #F6CE51",
"(	c #E7B404",
"_	c #D7A905",
":	c #CCA00A",
"<	c #C49A04",
"            .   ",
"          . + . ",
"           @#@  ",
"  $$$$$  ++#%#+.",
" $&***&=$-;;#@  ",
"$&**>>>,,')!~ + ",
"$>>&{]====-=~-^ ",
"$,&]/&,,,,,,{&{(",
"$&/]&>***>>,/&{(",
"$&]/>>>>,,,,{/(^",
"(&$&>,,,,,,&{{( ",
"(/$&&&&&&&&&{{( ",
"({$&&&&&&&&&{#^ ",
"^({&////////#(  ",
" ^____:::<<<<   ",
"                "};
