/* XPM */
static char * cut_xpm[] = {
"16 16 21 1",
" 	c None",
".	c #789CB8",
"+	c #91A8BB",
"@	c #8DADC6",
"#	c #A6B9E4",
"$	c #678BAE",
"%	c #B4CDD0",
"&	c #BBD6E9",
"*	c #B0B0CD",
"=	c #C9D9F0",
"-	c #A7C6EA",
";	c #B36953",
">	c #BB574E",
",	c #C36E69",
"'	c #B2B2AD",
")	c #C44C37",
"!	c #C8504B",
"~	c #C66555",
"{	c #C68D84",
"]	c #BC746D",
"^	c #9397AD",
"        .       ",
"       +@       ",
"       +#    $  ",
"       @%   @.  ",
"       @&  @**  ",
"       @&+@%@   ",
"       @&#&@    ",
"       @=-@     ",
"    ;>,+&@'     ",
"   )!!~*=+'     ",
"  ~!{{~**~!]    ",
"  !> ,~^~~!!    ",
"  !!!!>>! ,)    ",
"  ]))> ;) ~!    ",
"       ]!))>    ",
"        >)>     "};
