/* XPM */
static char * delete_entry_xpm[] = {
"16 16 39 1",
" 	c None",
".	c #E91619",
"+	c #B0B0CD",
"@	c #B9C4E4",
"#	c #B7DAFB",
"$	c #A7D3FD",
"%	c #A1CEFD",
"&	c #F20100",
"*	c #D12B2C",
"=	c #CFCECD",
"-	c #D9EAFD",
";	c #BCE0FC",
">	c #8698CD",
",	c #E2DAE6",
"'	c #E5CFCB",
")	c #DEF0FD",
"!	c #A6B9E4",
"~	c #F2322C",
"{	c #6B98C9",
"]	c #169BF9",
"^	c #5793CB",
"/	c #28A5FD",
"(	c #CCADB2",
"_	c #E90000",
":	c #9CD1FB",
"<	c #D00605",
"[	c #BB9CB8",
"}	c #B02F2E",
"|	c #B10504",
"1	c #B52610",
"2	c #96C5EA",
"3	c #C9B6CD",
"4	c #347ECA",
"5	c #9D2008",
"6	c #930202",
"7	c #A7C6EA",
"8	c #862330",
"9	c #98CCFB",
"0	c #87C6FA",
"                ",
" ..+@#$$%%%   & ",
" +***=---$;>.&  ",
" ;,'**')-!+*.   ",
" #))'*~''~.*{]  ",
" $-))'~..&*^/]  ",
" %-))-(._.+%:/  ",
" %-))=*<..+$$/  ",
" %--=*<*[**+:/  ",
" %-=}|1+#+**+/  ",
" 23}||}@#$+}}4  ",
" >}||}+###$+}5  ",
" 6665+$#$$$7+56 ",
" 6668!%:::90!866",
"  684////////486",
"                "};
