/* XPM */
static char * delete_book_xpm[] = {
"16 16 19 1",
" 	c None",
".	c #C49A04",
"+	c #D7A905",
"@	c #D00605",
"#	c #E7B404",
"$	c #F20100",
"%	c #F6C505",
"&	c #F4B500",
"*	c #B89205",
"=	c #E90000",
"-	c #F3EACD",
";	c #F2D296",
">	c #F6CE51",
",	c #F5CA2D",
"'	c #F0CC6A",
")	c #B10504",
"!	c #9A7500",
"~	c #930202",
"{	c #EAD7AF",
"       .+       ",
" @@  ..##+    $ ",
"  @@@#%%%&+ $$  ",
" *.#@=%%%%&$$   ",
"*-;>,==%%$$$+   ",
"*;-;>,==$$$%&+  ",
"*;;-;>,==$%%%&+ ",
"*'';-;@$==%%%%&+",
" *%';)@@,@@%%** ",
"  *%)));>,@@*-- ",
"   ))))-;**))--!",
"  ~))~'**---))* ",
" ~~~~*%*{--**~~ ",
" ~~~~ **{**  ~~~",
"  ~~   **     ~~",
"                "};
