/* XPM */
static char * delete_section_xpm[] = {
"16 16 43 1",
" 	c None",
".	c #B10504",
"+	c #F20100",
"@	c #D02C11",
"#	c #D00605",
"$	c #D98B01",
"%	c #E8B717",
"&	c #E90000",
"*	c #F3B48C",
"=	c #D12B2C",
"-	c #F9300E",
";	c #F3B572",
">	c #EAB828",
",	c #E6A814",
"'	c #C57A02",
")	c #ED1606",
"!	c #FDE079",
"~	c #F3EACD",
"{	c #F21B21",
"]	c #F94A04",
"^	c #F7F1B0",
"/	c #F5CA2D",
"(	c #F69304",
"_	c #F81915",
":	c #E6AB03",
"<	c #E7B404",
"[	c #FBE390",
"}	c #F6CE51",
"|	c #F39946",
"1	c #F61702",
"2	c #F2AD4C",
"3	c #DBAB16",
"4	c #B52610",
"5	c #F2AE10",
"6	c #D59904",
"7	c #9D2008",
"8	c #930202",
"9	c #D5AD55",
"0	c #C8880A",
"a	c #CCA00A",
"b	c #C49A04",
"c	c #B89205",
"d	c #AE7405",
"                ",
" ..           + ",
"  @@#$%     +&  ",
" %**=-;>,' +)   ",
"%!~~*@{;;)+]'   ",
"%^^!/(@__+)$:<< ",
"%[!>}}|)&12}/!/<",
"%!}%!2@#))2[}!/:",
"%!%>2@#@|@@*/}<:",
"<}324.4;!;@@5/< ",
"<}64..@!!!;@4,< ",
":27..4;!!!!;44$ ",
"'78872}}}}}}977 ",
" 88880aaabbcd888",
"  88          88",
"                "};
