/* XPM */
static char * text_delete_xpm[] = {
"16 16 6 1",
" 	c None",
".	c #D00605",
"+	c #F20100",
"@	c #E90000",
"#	c #B10504",
"$	c #930202",
"                ",
" ..           + ",
"  ...       ++  ",
"    .@     ++   ",
"     @@  +++    ",
"      @@+++     ",
"       @@+      ",
"      .+@@      ",
"     #.. ..     ",
"    ###   ..    ",
"   ####    ##   ",
"  $##$      ##  ",
" $$$$        $$ ",
" $$$$        $$$",
"  $$          $$",
"                "};
