/* XPM */
static char * exit_xpm[] = {
"16 16 41 1",
" 	c None",
".	c #4900DC",
"+	c #753EEF",
"@	c #7B46F3",
"#	c #6F36EB",
"$	c #9B74FF",
"%	c #8756F8",
"&	c #8353F3",
"*	c #A17EFF",
"=	c #956AFF",
"-	c #9061FF",
";	c #9E9E9E",
">	c #9066F8",
",	c #7BEBFF",
"'	c #7FEFFF",
")	c #70E0FF",
"!	c #48B8FF",
"~	c #966EFD",
"{	c #8A57FF",
"]	c #76E6FF",
"^	c #60D0FF",
"/	c #9C71FD",
"(	c #8955FE",
"_	c #AB87FB",
":	c #F2F2F2",
"<	c #8E5CFD",
"[	c #3DB900",
"}	c #9769FD",
"|	c #834CFE",
"1	c #49DC00",
"2	c #8C5CFD",
"3	c #844DFF",
"4	c #7E44FF",
"5	c #7E47F8",
"6	c #783AFF",
"7	c #7033F3",
"8	c #7230FF",
"9	c #601EEB",
"0	c #6A27F8",
"a	c #5F1AEF",
"b	c #6520F8",
"      ..        ",
"    ..+@.       ",
"  ..#$$%.       ",
"  .&*$=-.;;;;;  ",
"  .>$=--.,')!;  ",
"  .~==-{.])^!;  ",
"  .$=-/(.!!!!;  ",
"  .=-_:<.![[!;  ",
"  .--{}|.[111;  ",
"  .2{344.[11[;  ",
"  .53346.11[[;  ",
"  .73468.;;;;;  ",
"  ..9680.       ",
"    ..ab.       ",
"      ..        ",
"                "};
