/* XPM */
static char * forward_xpm[] = {
"16 16 29 1",
" 	c None",
".	c #3DD03D",
"+	c #46BC4B",
"@	c #32B52C",
"#	c #19C419",
"$	c #2AA51C",
"%	c #60CF58",
"&	c #7FD081",
"*	c #9EE4A2",
"=	c #70D671",
"-	c #26B826",
";	c #24B31E",
">	c #149011",
",	c #88D68F",
"'	c #92E193",
")	c #50D051",
"!	c #16B416",
"~	c #16AA15",
"{	c #BEE5C1",
"]	c #CDEFCD",
"^	c #217A0F",
"/	c #27C925",
"(	c #ABE8AB",
"_	c #E9F1F7",
":	c #2EBD34",
"<	c #0A540A",
"[	c #19790F",
"}	c #33AA34",
"|	c #28911A",
"     .+@#$      ",
"   .%&*=-;$>    ",
"  %,'&*)##!~>   ",
" .&'%={].##!~^  ",
" .=./.(_].#!~^  ",
"#:)///)]_].#!>< ",
"!#/=*{(]__].!>< ",
"##)*]______';>< ",
"!#/&*((]__]+!>< ",
">!#///)]_].!~>< ",
" >!##/*_].#~><  ",
" >~!!){{.!~>[<  ",
"  >~~@=}!~>[<   ",
"   ^^>|>>><<    ",
"     <<<<<      ",
"                "};
