/* XPM */
static char * help_xpm[] = {
"16 16 10 1",
" 	c None",
".	c #CFCECD",
"+	c #B2B2AD",
"@	c #DAE5B4",
"#	c #EAD7AF",
"$	c #F7F1B0",
"%	c #D1D4B3",
"&	c #B2CFB7",
"*	c #8DADC6",
"=	c #74A3CD",
"                ",
"  .++++++++++.  ",
" .@#$$%&&%$$#@. ",
" +#$$&*==*&$$#+ ",
" +$$@*=&&=*@$$+ ",
" +$$@**@%=*@$$+ ",
" +$$$@@&=*%$$$+ ",
" +$$$$@==%$$$$+ ",
" +$$$$$&&$$$$$+ ",
" +#$$$%**%$$$$+ ",
" +%###@&&@$$@@. ",
"  %+++++++@$%+  ",
"          +%+   ",
"           ++   ",
"            +   ",
"                "};
