/* XPM */
static char * move_section_xpm[] = {
"16 16 33 1",
" 	c None",
".	c #E8B717",
"+	c #DBB518",
"@	c #EAB828",
"#	c #FDE079",
"$	c #F3EACD",
"%	c #F7F1B0",
"&	c #FBE390",
"*	c #F5CA2D",
"=	c #F3BA19",
"-	c #DDB208",
";	c #DBAB16",
">	c #D7A905",
",	c #F6CE51",
"'	c #D5E091",
")	c #2EBD34",
"!	c #CAD175",
"~	c #EAD7AF",
"{	c #DAE5B4",
"]	c #1EC03B",
"^	c #0DBB2E",
"/	c #CFCC33",
"(	c #29C255",
"_	c #20C039",
":	c #27C925",
"<	c #30CD1D",
"[	c #32B52C",
"}	c #F6C505",
"|	c #E7B404",
"1	c #D2C547",
"2	c #CCA00A",
"3	c #B89205",
"4	c #C49A04",
"                ",
"                ",
"  ...++         ",
" @#$$$#@..++    ",
".#$$%%%%%%%&+   ",
".&%#*=@@@++@-;> ",
".&#@,#&&'))!*#*-",
".#,=#~{{']^)/#*-",
".#=,{(__]^:^)/--",
"-,.#']::::<:^[> ",
"-,.##)___^:^)+- ",
"-*=#####!_^)/}- ",
"-|*#,,,,,[[1}-  ",
" --;>>2223334   ",
"                ",
"                "};
