/* XPM */
static char * move_entry_xpm[] = {
"16 16 31 1",
" 	c None",
".	c #C9E3FD",
"+	c #BCE0FC",
"@	c #B7DAFB",
"#	c #A7D3FD",
"$	c #A1CEFD",
"%	c #98CCFB",
"&	c #D9EAFD",
"*	c #DEF0FD",
"=	c #9CD1FB",
"-	c #77C2FB",
";	c #E9F1F7",
">	c #BBD6E9",
",	c #28A5FD",
"'	c #70BBF8",
")	c #51B5FA",
"!	c #1AA7FD",
"~	c #C6E6EA",
"{	c #169BF9",
"]	c #29C255",
"^	c #97D2D4",
"/	c #A9D8E7",
"(	c #17BE45",
"_	c #0DBB2E",
":	c #21BE56",
"<	c #1BC042",
"[	c #27C925",
"}	c #30CD1D",
"|	c #96C5EA",
"1	c #8BC6EA",
"2	c #87C6FA",
"                ",
" ..+@###$%$     ",
" .&*****.=+-    ",
" +*;;***&%>%,   ",
" @*;****&%%')!  ",
" #****&~~@),,{  ",
" $&***~]]^@#=,  ",
" $&~~~/(_:^+#,  ",
" $~]<<<_[_:^#,  ",
" $/<[[[[}[_]|,  ",
" $/]<<(_[_:^%,  ",
" $+///^(_:^#%,  ",
" $+++@/::^##%,  ",
" %###$=11%%%2,  ",
" ),,,,,,,,,,,{  ",
"                "};
