/* XPM */
static char * open_book_xpm[] = {
"16 16 27 1",
" 	c None",
".	c #C49D14",
"+	c #EAB828",
"@	c #FDE079",
"#	c #F6CE51",
"$	c #B89205",
"%	c #E8B717",
"&	c #F3EACD",
"*	c #E9F1F7",
"=	c #F5CA2D",
"-	c #C49A04",
";	c #E5CFCB",
">	c #F0D18E",
",	c #CFCECD",
"'	c #D7E4E9",
")	c #F3BA19",
"!	c #B2B2AD",
"~	c #E7B404",
"{	c #F7F1B0",
"]	c #E2DAE6",
"^	c #DEF0FD",
"/	c #EAD7AF",
"(	c #C9E3FD",
"_	c #BBD6E9",
":	c #DAE5B4",
"<	c #B6962F",
"[	c #A29A86",
"                ",
"                ",
"           ..   ",
"         +.@#$  ",
"%%%++   +&*&=-  ",
"%@;&@+..****>%$ ",
"%,****;,'***&)- ",
"$=,****!,****=~$",
"$$%,***,,'***{%$",
" $.=]***!,^**&%$",
" $.%/*^*,,(*&+-$",
"  $.%@;''!_;+-$ ",
"  $.$$.+:!!<-$  ",
"   $$$$-<[<$$   ",
"       $$$$     ",
"                "};
