/* XPM */
static char * text_paste_xpm[] = {
"16 16 37 1",
" 	c None",
".	c #9E6927",
"+	c #A67130",
"@	c #D3B88A",
"#	c #B49260",
"$	c #AE8550",
"%	c #F0D18E",
"&	c #B3A68E",
"*	c #D5AD55",
"=	c #FBE390",
"-	c #FDE079",
";	c #D2AF6F",
">	c #F3B572",
",	c #D29755",
"'	c #987936",
")	c #B3AB1B",
"!	c #8CB9EA",
"~	c #8BC6EA",
"{	c #789CB8",
"]	c #70BBF8",
"^	c #D5CE8F",
"/	c #D9EAFD",
"(	c #E9F1F7",
"_	c #DEF0FD",
":	c #77C2FB",
"<	c #87C6FA",
"[	c #A7D3FD",
"}	c #B7DAFB",
"|	c #CB9669",
"1	c #C9E3FD",
"2	c #BCE0FC",
"3	c #6B98C9",
"4	c #A1CEFD",
"5	c #9CD1FB",
"6	c #98CCFB",
"7	c #169BF9",
"8	c #28A5FD",
"   .++++.       ",
"@#+$%%%%++#&    ",
"$@%*=--=*;@+    ",
"+%>,,,,*,;@')   ",
"+%>;;;!~~~~!{]  ",
"+^>;;;~/((__:!] ",
"+%;;*;~_(((/<[~]",
"+^;**;~_((_}:::]",
"+@***|~_(_11}2}:",
"+@**,|~__/1111[]",
"+@*,,|~//1111}[]",
"+;,,,|~//111}[[]",
"+;,,,|~11/1}[[[]",
"$;;;|;~111}[[[[]",
"&$+++'3}}455556]",
"      7888888888"};
