/* XPM */
static char * print_xpm[] = {
"16 16 33 1",
" 	c None",
".	c #74A3CD",
"+	c #6B98C9",
"@	c #5793CB",
"#	c #169BF9",
"$	c #117AD7",
"%	c #D7E4E9",
"&	c #D9EAFD",
"*	c #C9D9F0",
"=	c #8CB9EA",
"-	c #5895E2",
";	c #C9E3FD",
">	c #E9F1F7",
",	c #B7DAFB",
"'	c #BCE0FC",
")	c #909191",
"!	c #7C9194",
"~	c #717473",
"{	c #B2B2AD",
"]	c #B0B0CD",
"^	c #BBD6E9",
"/	c #7D8F79",
"(	c #CFCECD",
"_	c #E2DAE6",
":	c #C9B6CD",
"<	c #A29A86",
"[	c #555657",
"}	c #383838",
"|	c #B4CDD0",
"1	c #B2CFB7",
"2	c #9397AD",
"3	c #789CB8",
"4	c #678BAE",
"    .++++@+#$   ",
"   @%&&&%*=-$   ",
"   +&&&;;>;=+   ",
"   @&&;;;&>*@   ",
"   @&&&;;,'%@   ",
" )!+&&&&;'*%@~  ",
"){]+%****^^%+{/ ",
")(_))))))))))_:~",
")>>(________:>%/",
")%>{_((((((({>_~",
"/(({(::::::(<(:[",
"/{{):{{{{{{{){{}",
"~{{))))/~~[[~{{}",
"~<{){|||11{2[))}",
"/~~3*%%%%%%*4}[~",
"   +........+   "};
