/* XPM */
static char * namebook_xpm[] = {
"16 16 39 1",
" 	c None",
".	c #CCA00A",
"+	c #E6AB03",
"@	c #C49A04",
"#	c #E7B404",
"$	c #B89205",
"%	c #F4B500",
"&	c #F6C505",
"*	c #C49D14",
"=	c #DDB208",
"-	c #F0D18E",
";	c #F2AD4C",
">	c #F5CA2D",
",	c #F3B48C",
"'	c #F5472F",
")	c #F94A04",
"!	c #F3B572",
"~	c #F2322C",
"{	c #F9300E",
"]	c #F5A300",
"^	c #F81915",
"/	c #F69304",
"(	c #C8880A",
"_	c #F61702",
":	c #F07A35",
"<	c #C7A215",
"[	c #F39946",
"}	c #C89423",
"|	c #EAD7AF",
"1	c #E5CFCB",
"2	c #F2AE10",
"3	c #F6CE51",
"4	c #E9BAB2",
"5	c #F3EACD",
"6	c #D2AF6F",
"7	c #E8B717",
"8	c #D0AC30",
"9	c #F7F1B0",
"0	c #D5CE8F",
"       .+       ",
"     @.+#+      ",
"   $.+%&&%+     ",
" *.=&&&&&&%+    ",
"*--;>&%&&&&%+   ",
"*-,';>)%&&%%%+  ",
"*!',~;{]%]))%%+ ",
"@;{!{!^{/{]%&%#+",
" (_{^,{:{_]%#<* ",
"  _/{!{~[__{}|1 ",
"   @23,,!}}455|6",
"    @73<8|95|8* ",
"     @#*05|8<   ",
"      $*08<     ",
"       $*       ",
"                "};
