/* XPM */
static char * rename_section_xpm[] = {
"16 16 29 1",
" 	c None",
".	c #DBAB16",
"+	c #DBB518",
"@	c #FDE079",
"#	c #F3EACD",
"$	c #F7F1B0",
"%	c #FBE390",
"&	c #F0D18E",
"*	c #F5CA2D",
"=	c #EAB828",
"-	c #D7A905",
";	c #F6CE51",
">	c #F3BA19",
",	c #F3B572",
"'	c #F5472F",
")	c #F3B48C",
"!	c #CCA00A",
"~	c #F2AE10",
"{	c #F9300E",
"]	c #E6A814",
"^	c #F39946",
"/	c #F2AD4C",
"(	c #F81915",
"_	c #F2322C",
":	c #C49D14",
"<	c #F61702",
"[	c #B89205",
"}	c #D59904",
"|	c #C49A04",
"                ",
"                ",
"  .....         ",
" +@#$$@+....    ",
".@$$$$$%%%%&.   ",
".%%*=======.--  ",
".%=;&%%&%%%%*@- ",
".@>,')&'&%%@>@! ",
".@~{,',{,@,'{@! ",
".;]{^{/(_/{/>;: ",
".;]<{(/{^{(/~;[ ",
".;]{^{/{{^{{{/[ ",
".*]/;/;//;//~*[ ",
" -}-!!|||[[[[[  ",
"                ",
"                "};
