/* XPM */
static char * rename_entry_xpm[] = {
"16 16 32 1",
" 	c None",
".	c #C9E3FD",
"+	c #BCE0FC",
"@	c #A7D3FD",
"#	c #A1CEFD",
"$	c #98CCFB",
"%	c #D9EAFD",
"&	c #DEF0FD",
"*	c #9CD1FB",
"=	c #77C2FB",
"-	c #E9F1F7",
";	c #BBD6E9",
">	c #28A5FD",
",	c #B7DAFB",
"'	c #70BBF8",
")	c #51B5FA",
"!	c #1AA7FD",
"~	c #169BF9",
"{	c #E2DAE6",
"]	c #D7E4E9",
"^	c #C9B6CD",
"/	c #E9474F",
"(	c #B9C4E4",
"_	c #A6B9E4",
":	c #E93B46",
"<	c #CA97B2",
"[	c #F2322C",
"}	c #A7C6EA",
"|	c #F21B21",
"1	c #B0B0CD",
"2	c #BB9CB8",
"3	c #87C6FA",
"                ",
" ...+@@@#$#     ",
" .%&&&&%.*+=    ",
" .&-&&&&%$;$>   ",
" ,&-&&&&%$$')!  ",
" @%&&&&&%,)>>~  ",
" #%&&&%...,,*>  ",
" #%{%%]..+++@>  ",
" #^/^(/(,,((@>  ",
" _:<:^[^,^::}>  ",
" _[<[^|:<:1(@>  ",
" _|[|^[<:|1(@>  ",
" _:<:1[:2[[:}>  ",
" $}@_$__$___3>  ",
" )>>>>>>>>>>>~  ",
"                "};
