/* XPM */
static char * find_replace_xpm[] = {
"16 16 22 1",
" 	c None",
".	c #0C54D8",
"+	c #5793CB",
"@	c #51B5FA",
"#	c #5895E2",
"$	c #28A5FD",
"%	c #1AA7FD",
"&	c #2C91D4",
"*	c #2B68AF",
"=	c #169BF9",
"-	c #6B98C9",
";	c #456B97",
">	c #6B6555",
",	c #395694",
"'	c #987936",
")	c #835E02",
"!	c #CCA00A",
"~	c #B89205",
"{	c #7C5900",
"]	c #9A7500",
"^	c #D59904",
"/	c #AE7405",
"    ...         ",
"  ..+@+..       ",
" .+#@$%&*.      ",
" .#@$$%%=.      ",
".+@$%%%%$&.     ",
".+@$%%$@@#.     ",
".+$%%@@@@+.     ",
" .&%%$@@-;      ",
" .*&%@@+;>>     ",
"  ..&$+.,>')    ",
"    ... >'!~)   ",
"         {]^~)  ",
"          {]~/{ ",
"           {]~{ ",
"            {{  ",
"                "};
