/* XPM */
static char * search_entry_xpm[] = {
"16 16 73 1",
" 	c None",
".	c #C9E3FD",
"+	c #BCE0FC",
"@	c #B7DAFB",
"#	c #A7D3FD",
"$	c #A1CEFD",
"%	c #98CCFB",
"&	c #D9EAFD",
"*	c #DEF0FD",
"=	c #E2DAE6",
"-	c #D7E4E9",
";	c #9CD1FB",
">	c #77C2FB",
",	c #E9F1F7",
"'	c #F3EACD",
")	c #F5CA2D",
"!	c #EAB828",
"~	c #E8B717",
"{	c #D2C547",
"]	c #97D2D4",
"^	c #BBD6E9",
"/	c #9ED1E5",
"(	c #2891E7",
"_	c #F6C505",
":	c #FDE079",
"<	c #FEE702",
"[	c #B2CFB7",
"}	c #D5AD55",
"|	c #B9A63A",
"1	c #C8880A",
"2	c #F4B500",
"3	c #F0D18E",
"4	c #9B8834",
"5	c #A7C6EA",
"6	c #DBB518",
"7	c #F6CE51",
"8	c #AE7405",
"9	c #8CB9EA",
"0	c #456B97",
"a	c #246E7D",
"b	c #416271",
"c	c #FBE390",
"d	c #D59904",
"e	c #0A648A",
"f	c #0A5B87",
"g	c #0A4D71",
"h	c #717473",
"i	c #7D8F79",
"j	c #395694",
"k	c #0E475D",
"l	c #0252AF",
"m	c #DBAB16",
"n	c #7C9194",
"o	c #117AD7",
"p	c #E7B404",
"q	c #158FD4",
"r	c #383838",
"s	c #C49A04",
"t	c #CCA00A",
"u	c #6B98C9",
"v	c #6795B6",
"w	c #31698F",
"x	c #5793CB",
"y	c #C7A215",
"z	c #B6962F",
"A	c #2C91D4",
"B	c #96C5EA",
"C	c #87C6FA",
"D	c #4B83A6",
"E	c #74A3CD",
"F	c #28A5FD",
"G	c #51B5FA",
"H	c #169BF9",
"                ",
" ..+@###$%$     ",
" .&**=---;+>    ",
" +*,')!~{]^/(   ",
" @*'{_:<_{[}{|1 ",
" #-{_<)_2_!)):34",
" 5}6~)____))::78",
" 90ab}~~{)<:c7)d",
" 0efghiaai):7)_d",
"jkllgfkfea|___m8",
"nkolgkkggfh__p8 ",
"egfggfqqegrst4  ",
" uvw9xeqgk4yzA  ",
" %;B;CADaEBB9F  ",
" GFFFFHHHFFFFH  ",
"                "};
