/* XPM */
static char * search_xpm[] = {
"16 16 42 1",
" 	c None",
".	c #F5CA2D",
"+	c #EAB828",
"@	c #E8B717",
"#	c #D2C547",
"$	c #F6C505",
"%	c #FDE079",
"&	c #FEE702",
"*	c #D5AD55",
"=	c #B9A63A",
"-	c #C8880A",
";	c #F4B500",
">	c #F0D18E",
",	c #9B8834",
"'	c #DBB518",
")	c #F6CE51",
"!	c #AE7405",
"~	c #456B97",
"{	c #246E7D",
"]	c #416271",
"^	c #FBE390",
"/	c #D59904",
"(	c #0A648A",
"_	c #0A5B87",
":	c #0A4D71",
"<	c #717473",
"[	c #7D8F79",
"}	c #395694",
"|	c #0E475D",
"1	c #0252AF",
"2	c #DBAB16",
"3	c #7C9194",
"4	c #117AD7",
"5	c #E7B404",
"6	c #383838",
"7	c #C49A04",
"8	c #CCA00A",
"9	c #6B98C9",
"0	c #6795B6",
"a	c #31698F",
"b	c #C7A215",
"c	c #B6962F",
"                ",
"                ",
"                ",
"     .+@#       ",
"    #$%&$# *#=- ",
"   #$&.$;$+..%>,",
"  *'@.$$$$..%%)!",
"  ~{]*@@#.&%^)./",
" ~(_:<[{{[.%).$/",
"}|11:_~(_:=$$$2!",
"3|41:}|11:<$$5! ",
"(:_::3|41:678,  ",
" 90a (:_::,bc   ",
"      90a       ",
"                ",
"                "};
