/* XPM */
static char * select_all_xpm[] = {
"16 16 157 2",
"  	c None",
". 	c #D4D4D4",
"+ 	c #D0D0D0",
"@ 	c #C6C6C6",
"# 	c #DADADA",
"$ 	c #EAE9E9",
"% 	c #F2F2F2",
"& 	c #F7F7F7",
"* 	c #F6F6F6",
"= 	c #F3F2F2",
"- 	c #EEEDED",
"; 	c #E6E6E6",
"> 	c #DEDEDE",
", 	c #D4D3D3",
"' 	c #E3E3E3",
") 	c #E4E9EE",
"! 	c #E2E7EB",
"~ 	c #DCE6EC",
"{ 	c #D9E3E9",
"] 	c #D4E1E8",
"^ 	c #FFFEFF",
"/ 	c #FFFFFD",
"( 	c #EAF2F4",
"_ 	c #CBDAE0",
": 	c #E5E5EB",
"< 	c #E4E3E4",
"[ 	c #A3BDCA",
"} 	c #7597AD",
"| 	c #7799AC",
"1 	c #7497A9",
"2 	c #6F95A9",
"3 	c #D5E1E5",
"4 	c #98AEBB",
"5 	c #6E8DA3",
"6 	c #80A3B8",
"7 	c #E4EFF1",
"8 	c #CCCCCC",
"9 	c #E3E3E1",
"0 	c #B3CEDB",
"a 	c #9CBFCE",
"b 	c #96B9D0",
"c 	c #95B8CE",
"d 	c #92B5CB",
"e 	c #8CB0C6",
"f 	c #B0CDE1",
"g 	c #CDDCE4",
"h 	c #C9D9E7",
"i 	c #E6EDF2",
"j 	c #CFCECE",
"k 	c #E0E0DF",
"l 	c #83A7B6",
"m 	c #84A8BE",
"n 	c #86A9BF",
"o 	c #89ADC3",
"p 	c #8AADC3",
"q 	c #B5CDDE",
"r 	c #D5DFE4",
"s 	c #ECEFEB",
"t 	c #EEF3EF",
"u 	c #D8D8D8",
"v 	c #E1E0E0",
"w 	c #BECFDE",
"x 	c #7CA1B8",
"y 	c #7C9FB1",
"z 	c #7CA0B2",
"A 	c #7E9EB3",
"B 	c #7B9CAD",
"C 	c #7699AB",
"D 	c #81A5B8",
"E 	c #E8EDED",
"F 	c #EEEDF0",
"G 	c #C8D5DF",
"H 	c #A7C7DA",
"I 	c #A9C8D6",
"J 	c #A9C7D5",
"K 	c #A7C9D9",
"L 	c #B5CCDA",
"M 	c #BED2E0",
"N 	c #BAD0DE",
"O 	c #E4E9E9",
"P 	c #EBEBED",
"Q 	c #D9D9D9",
"R 	c #DFDEDE",
"S 	c #C3D6DE",
"T 	c #89A5B3",
"U 	c #859FB2",
"V 	c #85A0B2",
"W 	c #90ACBB",
"X 	c #C9DBE3",
"Y 	c #E0E7E9",
"Z 	c #E9EBEB",
"` 	c #EAEAEA",
" .	c #E8E8E8",
"..	c #DEDEDD",
"+.	c #C4D6DE",
"@.	c #9EBBC9",
"#.	c #9DB9C5",
"$.	c #9AB6C4",
"%.	c #95B1C0",
"&.	c #A4B9CE",
"*.	c #DFE8E4",
"=.	c #E9E9E8",
"-.	c #E5E6E6",
";.	c #D7D7D7",
">.	c #DDDCDC",
",.	c #ABC1D3",
"'.	c #A9C2CF",
").	c #A6BFCC",
"!.	c #A3BCCA",
"~.	c #A1BAC8",
"{.	c #ADC4D3",
"].	c #CCD8E0",
"^.	c #CDD9E0",
"/.	c #DCDFE4",
"(.	c #D7D6D7",
"_.	c #E3E3E2",
":.	c #B6C8CF",
"<.	c #8EA4B5",
"[.	c #8EA2AC",
"}.	c #8DA1AA",
"|.	c #8B9FAA",
"1.	c #8A9EA8",
"2.	c #859BA9",
"3.	c #8298A8",
"4.	c #95A5B5",
"5.	c #D4DCDF",
"6.	c #D5D5D5",
"7.	c #B7C9D3",
"8.	c #ABBDC7",
"9.	c #B3C4CF",
"0.	c #BACBD6",
"a.	c #BFD1DB",
"b.	c #CAD5DE",
"c.	c #C8D3DC",
"d.	c #BFCFD7",
"e.	c #D6DBDC",
"f.	c #E1E1E1",
"g.	c #CBD9E0",
"h.	c #B7C3CB",
"i.	c #A7B4BB",
"j.	c #9AA7AE",
"k.	c #8C9FA9",
"l.	c #A8BBC5",
"m.	c #DBDEDA",
"n.	c #DDE0DC",
"o.	c #E0E1DE",
"p.	c #E3E4E1",
"q.	c #C9C9C9",
"r.	c #C4C3C4",
"s.	c #D9D8D8",
"t.	c #DCDCDC",
"u.	c #DBDBDB",
"v.	c #DADADC",
"w.	c #D9DADC",
"x.	c #E4E4E4",
"y.	c #D6D6D6",
"z.	c #BCBCBC",
"            . + @               ",
"  # $ % & * = - ; > ,           ",
"  ' ) ! ~ { ] ^ / ( _ :         ",
"  < [ } | 1 2 3 4 5 6 7 8       ",
"  9 0 a b c d e f g h i j       ",
"  k 0 l m n o p q r s t u       ",
"  v w x y z A B C D E F u       ",
"  > G H I J K L M N O P Q       ",
"  R S T U V W X Y Z `  .u       ",
"  ..+.@.#.#.$.%.&.*.=.-.;.      ",
"  >.+.,.'.).!.~.{.].^./.(.      ",
"  _.:.<.[.}.|.1.2.3.4.5.6.      ",
"  > 7.8.9.0.a.a.b.c.d.e.+       ",
"  f.g.h.i.j.k.l.m.n.o.p.q.      ",
"    r.s.t.u.v.w.f.x.f. .@ Q     ",
"                    q.y.z.      "};
