/* XPM */
static char * trash_entry_xpm[] = {
"16 16 38 1",
" 	c None",
".	c #C9E3FD",
"+	c #BCE0FC",
"@	c #B7DAFB",
"#	c #A7D3FD",
"$	c #A1CEFD",
"%	c #9CD1FB",
"&	c #D9EAFD",
"*	c #E9F1F7",
"=	c #DEF0FD",
"-	c #77C2FB",
";	c #98CCFB",
">	c #BBD6E9",
",	c #28A5FD",
"'	c #70BBF8",
")	c #51B5FA",
"!	c #1AA7FD",
"~	c #D7E4E9",
"{	c #97D4A2",
"]	c #92E193",
"^	c #70D671",
"/	c #149011",
"(	c #4CBB53",
"_	c #9ED1E5",
":	c #CFCECD",
"<	c #16AA15",
"[	c #60CF58",
"}	c #A9D8E7",
"|	c #B4CDD0",
"1	c #97D2D4",
"2	c #88D68F",
"3	c #B9C4E4",
"4	c #B0B0CD",
"5	c #9EE4A2",
"6	c #C6E6EA",
"7	c #96C5EA",
"8	c #87C6FA",
"9	c #169BF9",
"                ",
" ..+@###$%$     ",
" .&*====.%+-    ",
" +=**===&;>;,   ",
" @=**===&;;')!  ",
" #=**~{]^/),)!  ",
" #=**(////_#$,  ",
" #=*:/<[//}+#,  ",
" $&&|/{122}@#,  ",
" $&&32{12/1@$,  ",
" $@@4//(</_#%,  ",
" $@@|////(@#;,  ",
" $@@|/^]56##;,  ",
" ;###7%%%%;;8,  ",
" ),,,,,,,,,,,9  ",
"                "};
