/* XPM */
static char * undo_xpm[] = {
"16 16 7 1",
" 	c None",
".	c #1E29B6",
"+	c #232FBB",
"@	c #4358D7",
"#	c #4D65DB",
"$	c #3344D0",
"%	c #2E3ED0",
"     .          ",
"    +.          ",
"   +@++++       ",
"  +@####$++     ",
" +@#####@@$+    ",
"  +@##@@@@@+    ",
"   +@++++$@$+   ",
"    +.   +$$+   ",
"     .    +$+   ",
"          +$+   ",
"          +$+   ",
"          +%+   ",
"         +%+    ",
"         +%+    ",
"        +%+     ",
"       ..+      "};
