/* XPM */
static char * view_bookmarks_xpm[] = {
"16 16 35 1",
" 	c None",
".	c #E2DAE6",
"+	c #C66555",
"@	c #C44C37",
"#	c #F3BA19",
"$	c #CFCECD",
"%	c #E9F1F7",
"&	c #F6CE51",
"*	c #F5CA2D",
"=	c #E5CFCB",
"-	c #D02C11",
";	c #D3B88A",
">	c #EAB828",
",	c #D1D4B3",
"'	c #F3EACD",
")	c #F6C505",
"!	c #FDE079",
"~	c #B84634",
"{	c #B2B2AD",
"]	c #B3A68E",
"^	c #C9B6CD",
"/	c #E8B717",
"(	c #C49D14",
"_	c #DBB518",
":	c #B02F2E",
"<	c #B52610",
"[	c #B89205",
"}	c #EAD7AF",
"|	c #CCADB2",
"1	c #E9BAB2",
"2	c #BC746D",
"3	c #E7B404",
"4	c #D5CE8F",
"5	c #C49A04",
"6	c #F4B500",
"                ",
"                ",
"  .+@+ # $.%%   ",
"&*=@-@;>,$.%'*& ",
")!=@-~{]^$.%'!) ",
")!=~-~{{^$.%'!) ",
")!=~-~{{^$.%'!> ",
"/*=~-~{{^$.%'!( ",
"_#=:<:{{^$.%'>[ ",
"[/}~~~{{^$.%'/[ ",
"[/=|12|{^$.%'/[ ",
"[/}'=,^{^$='}/[ ",
"[3//>!4]4!>//3[ ",
" [555(///35555[ ",
"  66 [[[[   33  ",
"                "};
