/* XPM */
static char * view_history_xpm[] = {
"16 16 42 1",
" 	c None",
".	c #B2CFB7",
"+	c #97D4A2",
"@	c #92E193",
"#	c #9EE4A2",
"$	c #F3EACD",
"%	c #D1D4B3",
"&	c #BBBC71",
"*	c #84D173",
"=	c #70D671",
"-	c #6DE173",
";	c #EAD7AF",
">	c #D2AF6F",
",	c #D3B88A",
"'	c #B2B2AD",
")	c #A29A86",
"!	c #60CF58",
"~	c #D5CE8F",
"{	c #D5AD55",
"]	c #E2DAE6",
"^	c #E9F1F7",
"/	c #50D051",
"(	c #CB9669",
"_	c #C9B6CD",
":	c #F7F1B0",
"<	c #D7E4E9",
"[	c #5BDB61",
"}	c #4CBB53",
"|	c #F3B48C",
"1	c #CFCECD",
"2	c #46BC4B",
"3	c #88D68F",
"4	c #D29755",
"5	c #B3A68E",
"6	c #909191",
"7	c #94AB95",
"8	c #B4CDD0",
"9	c #7FD081",
"0	c #7D8F79",
"a	c #F3B572",
"b	c #F0D18E",
"c	c #E5CFCB",
"                ",
"       .+@#     ",
"    $%%%&*=-#   ",
"  ;>,')%'&&!=#  ",
" ~{']]']^]&!/!. ",
" (']^^_^::<-[}+ ",
"|(1^^]']^:^-[23 ",
"4>1<<]'1]]<-[23 ",
"()1]]]~5677=[!3 ",
"(>1111118.9=[/}0",
"|>11111111+3[!= ",
" (%1111111'&*=  ",
" |,%1118.'>a#   ",
"  5{&%)))(a:    ",
"   5>~>>>bc     ",
"     1111       "};
